<svg width="120" height="40" viewBox="0 0 120 40" fill="none" xmlns="http://www.w3.org/2000/svg">
  <!-- CLEAN text -->
  <g fill="currentColor">
    <!-- C -->
    <path d="M2 12C2 10.8954 2.89543 10 4 10H8C9.10457 10 10 10.8954 10 12V13C10 13.5523 9.55228 14 9 14C8.44772 14 8 13.5523 8 13V12H4V28H8V27C8 26.4477 8.44772 26 9 26C9.55228 26 10 26.4477 10 27V28C10 29.1046 9.10457 30 8 30H4C2.89543 30 2 29.1046 2 28V12Z"/>
    <!-- L -->
    <path d="M12 10C12.5523 10 13 10.4477 13 11V28H19C19.5523 28 20 28.4477 20 29C20 29.5523 19.5523 30 19 30H13C11.8954 30 11 29.1046 11 28V11C11 10.4477 11.4477 10 12 10Z"/>
    <!-- E -->
    <path d="M22 10C22.5523 10 23 10.4477 23 11V28C23 28.5523 22.5523 29 22 29H30C30.5523 29 31 29.4477 31 30C31 30.5523 30.5523 31 30 31H22C20.8954 31 20 30.1046 20 29V11C20 9.89543 20.8954 9 22 9H30C30.5523 9 31 9.44772 31 10C31 10.5523 30.5523 11 30 11H22V18H28C28.5523 18 29 18.4477 29 19C29 19.5523 28.5523 20 28 20H22V29Z"/>
  </g>
  
  <!-- Location Pin -->
  <g transform="translate(34, 8)">
    <circle cx="8" cy="8" r="6" stroke="currentColor" stroke-width="2" fill="none"/>
    <circle cx="8" cy="8" r="2" fill="currentColor"/>
    <path d="M8 14L6 18H10L8 14Z" fill="currentColor"/>
  </g>
  
  <!-- A (stylized) -->
  <path d="M52 30V26L54 18H56L58 26V30C58 30.5523 57.5523 31 57 31C56.4477 31 56 30.5523 56 30V27H54V30C54 30.5523 53.5523 31 53 31C52.4477 31 52 30.5523 52 30ZM54 25H56L55 22L54 25Z" fill="currentColor"/>
  
  <!-- N -->
  <g fill="currentColor">
    <path d="M60 10C60.5523 10 61 10.4477 61 11V24L66 12C66.2652 11.4174 66.8804 11.0819 67.5279 11.1896C68.1754 11.2973 68.6973 11.8192 68.8051 12.4667C68.9128 13.1142 68.5773 13.7294 68 14L63 26V29C63 29.5523 62.5523 30 62 30C61.4477 30 61 29.5523 61 29V11C61 10.4477 61.4477 10 62 10H60Z"/>
  </g>
  
  <!-- K with trash can -->
  <g transform="translate(70, 8)">
    <!-- K letter -->
    <path d="M0 2C0.55228 2 1 2.44772 1 3V9.58579L4.29289 6.29289C4.68342 5.90237 5.31658 5.90237 5.70711 6.29289C6.09763 6.68342 6.09763 7.31658 5.70711 7.70711L3.41421 10L5.70711 12.2929C6.09763 12.6834 6.09763 13.3166 5.70711 13.7071C5.31658 14.0976 4.68342 14.0976 4.29289 13.7071L1 10.4142V21C1 21.5523 0.55228 22 0 22C-0.55228 22 -1 21.5523 -1 21V3C-1 2.44772 -0.55228 2 0 2Z" fill="currentColor"/>
    
    <!-- Trash can -->
    <g transform="translate(8, 4)">
      <!-- Lid -->
      <rect x="0" y="0" width="12" height="2" rx="1" fill="currentColor"/>
      <!-- Handle -->
      <path d="M4 0V-1C4 -1.55228 4.44772 -2 5 -2H7C7.55228 -2 8 -1.55228 8 -1V0" stroke="currentColor" stroke-width="1.5" fill="none"/>
      <!-- Body -->
      <path d="M1 2L1.5 16C1.55228 17.1046 2.44772 18 3.55228 18H8.44772C9.55228 18 10.4477 17.1046 10.5 16L11 2H1Z" fill="currentColor"/>
      <!-- Lines inside trash -->
      <line x1="4" y1="5" x2="4" y2="15" stroke="white" stroke-width="1"/>
      <line x1="6" y1="5" x2="6" y2="15" stroke="white" stroke-width="1"/>
      <line x1="8" y1="5" x2="8" y2="15" stroke="white" stroke-width="1"/>
      <!-- Sparkles -->
      <circle cx="14" cy="8" r="1" fill="currentColor"/>
      <circle cx="16" cy="6" r="0.5" fill="currentColor"/>
      <circle cx="15" cy="10" r="0.5" fill="currentColor"/>
    </g>
  </g>
  
  <!-- LI text -->
  <g fill="currentColor" transform="translate(95, 0)">
    <!-- L -->
    <path d="M0 10C0.55228 10 1 10.4477 1 11V28H7C7.55228 28 8 28.4477 8 29C8 29.5523 7.55228 30 7 30H1C-0.10457 30 -1 29.1046 -1 28V11C-1 10.4477 -0.55228 10 0 10Z"/>
    <!-- I -->
    <path d="M12 10C12.5523 10 13 10.4477 13 11V29C13 29.5523 12.5523 30 12 30C11.4477 30 11 29.5523 11 29V11C11 10.4477 11.4477 10 12 10Z"/>
  </g>
  
  <!-- Underlines -->
  <rect x="2" y="32" width="28" height="2" fill="currentColor"/>
  <rect x="52" y="32" width="55" height="2" fill="currentColor"/>
</svg>
